
<svg xmlns="http://www.w3.org/2000/svg" width="512" height="512" viewBox="0 0 512 512">
  <defs>
    <linearGradient id="bg" x1="0%" y1="0%" x2="100%" y2="100%">
      <stop offset="0%" stop-color="#6366f1"/>
      <stop offset="100%" stop-color="#4f46e5"/>
    </linearGradient>
  </defs>
  <rect width="512" height="512" rx="80" fill="url(#bg)"/>
  <!-- Книга -->
  <g transform="translate(100, 80)">
    <path d="M156 0 C80 0 20 20 20 20 L20 300 C20 300 80 280 156 280 C232 280 292 300 292 300 L292 20 C292 20 232 0 156 0Z" fill="white" opacity="0.95"/>
    <line x1="156" y1="10" x2="156" y2="280" stroke="#6366f1" stroke-width="3" opacity="0.3"/>
    <!-- Строки текста -->
    <g opacity="0.2" stroke="#4f46e5" stroke-width="8" stroke-linecap="round">
      <line x1="50" y1="60" x2="130" y2="60"/>
      <line x1="50" y1="90" x2="120" y2="90"/>
      <line x1="50" y1="120" x2="140" y2="120"/>
      <line x1="180" y1="60" x2="260" y2="60"/>
      <line x1="180" y1="90" x2="250" y2="90"/>
      <line x1="180" y1="120" x2="240" y2="120"/>
    </g>
  </g>
  <!-- Карандаш -->
  <g transform="translate(300, 260) rotate(45)">
    <rect x="0" y="0" width="24" height="120" rx="4" fill="#fbbf24"/>
    <polygon points="0,120 12,150 24,120" fill="#f59e0b"/>
    <polygon points="8,140 12,150 16,140" fill="#374151"/>
    <rect x="0" y="0" width="24" height="15" rx="4" fill="#f472b6"/>
  </g>
  <!-- Прогресс-бар -->
  <rect x="120" y="420" width="272" height="24" rx="12" fill="white" opacity="0.3"/>
  <rect x="120" y="420" width="190" height="24" rx="12" fill="white" opacity="0.9"/>
</svg>